# xmcd CD database file
#
# Track frame offsets:
#	150
#	21990
#	43630
#	65472
#
# Disc length: 1157 seconds
#
# Revision: 0
# Processed by: cddbd v1.5.1PL0 Copyright (c) Steve Scherf et al.
# Submitted via: CDex 1.51
#
DISCID=2f048304
DTITLE=谷咲ナオミ - 大好きだよ(Into Your Heart)
DYEAR=2004
DGENRE=Anime
TTITLE0=大好きだよ(Into Your Heart)
TTITLE1=それぞれの未来へ
TTITLE2=大好きだよ(Into Your Heart) オリジナルカラオケ
TTITLE3=それぞれの未来へ オリジナルカラオケ
EXTD=YEAR: 2004
EXTT0=
EXTT1=
EXTT2=
EXTT3=
PLAYORDER=
